<mxfile host="app.diagrams.net" modified="2022-10-11T14:37:54.438Z" agent="5.0 (Windows NT 10.0; Win64; x64) AppleWebKit/537.36 (KHTML, like Gecko) Chrome/106.0.0.0 Safari/537.36" etag="ETHvpZ2nJiGDjKtzcPD4" version="20.4.0" type="github">
  <diagram id="K-XMss6lLOU4KSS0F_sG" name="Page-1">
    <mxGraphModel dx="2554" dy="1059" grid="1" gridSize="10" guides="1" tooltips="1" connect="1" arrows="1" fold="1" page="1" pageScale="1" pageWidth="827" pageHeight="1169" math="0" shadow="0">
      <root>
        <mxCell id="0" />
        <mxCell id="1" parent="0" />
        <mxCell id="_yWJ8XgYvZZ2svztFTC0-26" value="" style="rounded=0;whiteSpace=wrap;html=1;fontFamily=Times New Roman;fontSize=45;fontColor=#0000CC;fillColor=none;strokeWidth=2;strokeColor=#00CC00;sketch=0;glass=0;" vertex="1" parent="1">
          <mxGeometry x="140" y="300" width="170" height="80" as="geometry" />
        </mxCell>
        <mxCell id="_yWJ8XgYvZZ2svztFTC0-76" value="" style="rounded=0;whiteSpace=wrap;html=1;fontFamily=Times New Roman;fontSize=45;fontColor=#0000CC;fillColor=none;strokeWidth=4;strokeColor=#FF3333;sketch=0;glass=0;" vertex="1" parent="1">
          <mxGeometry x="-130" y="480" width="170" height="80" as="geometry" />
        </mxCell>
        <mxCell id="_yWJ8XgYvZZ2svztFTC0-30" value="" style="rounded=0;whiteSpace=wrap;html=1;fontFamily=Times New Roman;fontSize=45;fontColor=#0000CC;fillColor=none;strokeWidth=4;strokeColor=#FF3333;sketch=0;glass=0;" vertex="1" parent="1">
          <mxGeometry x="-220" y="300" width="170" height="80" as="geometry" />
        </mxCell>
        <mxCell id="_yWJ8XgYvZZ2svztFTC0-170" value="" style="rounded=0;whiteSpace=wrap;html=1;fontFamily=Times New Roman;fontSize=45;fontColor=#0000CC;fillColor=none;strokeWidth=4;strokeColor=#FF3333;sketch=0;glass=0;" vertex="1" parent="1">
          <mxGeometry x="-130" y="840" width="170" height="80" as="geometry" />
        </mxCell>
        <mxCell id="_yWJ8XgYvZZ2svztFTC0-179" value="" style="rounded=0;whiteSpace=wrap;html=1;fontFamily=Times New Roman;fontSize=45;fontColor=#0000CC;fillColor=none;strokeWidth=4;strokeColor=#FF3333;sketch=0;glass=0;" vertex="1" parent="1">
          <mxGeometry x="50" y="840" width="170" height="80" as="geometry" />
        </mxCell>
        <mxCell id="_yWJ8XgYvZZ2svztFTC0-136" value="" style="rounded=0;whiteSpace=wrap;html=1;fontFamily=Times New Roman;fontSize=45;fontColor=#0000CC;fillColor=none;strokeWidth=2;strokeColor=#00CC00;sketch=0;glass=0;" vertex="1" parent="1">
          <mxGeometry x="-220" y="660" width="170" height="80" as="geometry" />
        </mxCell>
        <mxCell id="_yWJ8XgYvZZ2svztFTC0-125" value="" style="rounded=0;whiteSpace=wrap;html=1;fontFamily=Times New Roman;fontSize=45;fontColor=#0000CC;fillColor=none;strokeWidth=4;strokeColor=#FF3333;sketch=0;glass=0;" vertex="1" parent="1">
          <mxGeometry x="-40" y="660" width="170" height="80" as="geometry" />
        </mxCell>
        <mxCell id="_yWJ8XgYvZZ2svztFTC0-123" value="" style="rounded=0;whiteSpace=wrap;html=1;fontFamily=Times New Roman;fontSize=45;fontColor=#0000CC;fillColor=none;strokeWidth=2;strokeColor=#00CC00;sketch=0;glass=0;" vertex="1" parent="1">
          <mxGeometry x="140" y="660" width="170" height="80" as="geometry" />
        </mxCell>
        <mxCell id="_yWJ8XgYvZZ2svztFTC0-1" value="&lt;font style=&quot;font-size: 45px;&quot;&gt;3&lt;/font&gt;" style="rounded=0;whiteSpace=wrap;html=1;fontFamily=Times New Roman;fontSize=45;" vertex="1" parent="1">
          <mxGeometry x="-300" y="210" width="60" height="60" as="geometry" />
        </mxCell>
        <mxCell id="_yWJ8XgYvZZ2svztFTC0-2" value="&lt;font style=&quot;font-size: 45px;&quot;&gt;6&lt;/font&gt;" style="rounded=0;whiteSpace=wrap;html=1;fontFamily=Times New Roman;fontSize=45;" vertex="1" parent="1">
          <mxGeometry x="-210" y="210" width="60" height="60" as="geometry" />
        </mxCell>
        <mxCell id="_yWJ8XgYvZZ2svztFTC0-3" value="&lt;font style=&quot;font-size: 45px;&quot;&gt;2&lt;/font&gt;" style="rounded=0;whiteSpace=wrap;html=1;fontFamily=Times New Roman;fontSize=45;" vertex="1" parent="1">
          <mxGeometry x="-120" y="210" width="60" height="60" as="geometry" />
        </mxCell>
        <mxCell id="_yWJ8XgYvZZ2svztFTC0-4" value="&lt;font style=&quot;font-size: 45px;&quot;&gt;5&lt;/font&gt;" style="rounded=0;whiteSpace=wrap;html=1;fontFamily=Times New Roman;fontSize=45;" vertex="1" parent="1">
          <mxGeometry x="-30" y="210" width="60" height="60" as="geometry" />
        </mxCell>
        <mxCell id="_yWJ8XgYvZZ2svztFTC0-5" value="&lt;font style=&quot;font-size: 45px;&quot;&gt;4&lt;/font&gt;" style="rounded=0;whiteSpace=wrap;html=1;fontFamily=Times New Roman;fontSize=45;" vertex="1" parent="1">
          <mxGeometry x="60" y="210" width="60" height="60" as="geometry" />
        </mxCell>
        <mxCell id="_yWJ8XgYvZZ2svztFTC0-321" value="" style="edgeStyle=none;rounded=0;orthogonalLoop=1;jettySize=auto;html=1;strokeColor=#666600;strokeWidth=5;fontFamily=Times New Roman;fontSize=45;fontColor=#0000CC;startArrow=none;startFill=0;endArrow=block;endFill=1;" edge="1" parent="1" source="_yWJ8XgYvZZ2svztFTC0-6" target="_yWJ8XgYvZZ2svztFTC0-23">
          <mxGeometry relative="1" as="geometry" />
        </mxCell>
        <mxCell id="_yWJ8XgYvZZ2svztFTC0-6" value="&lt;font style=&quot;font-size: 45px;&quot;&gt;1&lt;/font&gt;" style="rounded=0;whiteSpace=wrap;html=1;fontFamily=Times New Roman;fontSize=45;" vertex="1" parent="1">
          <mxGeometry x="150" y="210" width="60" height="60" as="geometry" />
        </mxCell>
        <mxCell id="_yWJ8XgYvZZ2svztFTC0-7" value="&lt;font style=&quot;font-size: 45px;&quot;&gt;7&lt;/font&gt;" style="rounded=0;whiteSpace=wrap;html=1;fontFamily=Times New Roman;fontSize=45;" vertex="1" parent="1">
          <mxGeometry x="240" y="210" width="60" height="60" as="geometry" />
        </mxCell>
        <mxCell id="_yWJ8XgYvZZ2svztFTC0-9" value="&lt;font color=&quot;#0000cc&quot; style=&quot;font-size: 45px;&quot;&gt;1&lt;/font&gt;" style="rounded=0;whiteSpace=wrap;html=1;strokeColor=none;fillColor=none;fontFamily=Times New Roman;fontSize=45;" vertex="1" parent="1">
          <mxGeometry x="-210" y="140" width="60" height="60" as="geometry" />
        </mxCell>
        <mxCell id="_yWJ8XgYvZZ2svztFTC0-10" value="&lt;font color=&quot;#0000cc&quot; style=&quot;font-size: 45px;&quot;&gt;2&lt;/font&gt;" style="rounded=0;whiteSpace=wrap;html=1;strokeColor=none;fillColor=none;fontFamily=Times New Roman;fontSize=45;" vertex="1" parent="1">
          <mxGeometry x="-120" y="140" width="60" height="60" as="geometry" />
        </mxCell>
        <mxCell id="_yWJ8XgYvZZ2svztFTC0-11" value="&lt;font color=&quot;#0000cc&quot; style=&quot;font-size: 45px;&quot;&gt;3&lt;/font&gt;" style="rounded=0;whiteSpace=wrap;html=1;strokeColor=none;fillColor=none;fontFamily=Times New Roman;fontSize=45;" vertex="1" parent="1">
          <mxGeometry x="-30" y="140" width="60" height="60" as="geometry" />
        </mxCell>
        <mxCell id="_yWJ8XgYvZZ2svztFTC0-12" value="&lt;font color=&quot;#0000cc&quot; style=&quot;font-size: 45px;&quot;&gt;4&lt;/font&gt;" style="rounded=0;whiteSpace=wrap;html=1;strokeColor=none;fillColor=none;fontFamily=Times New Roman;fontSize=45;" vertex="1" parent="1">
          <mxGeometry x="60" y="140" width="60" height="60" as="geometry" />
        </mxCell>
        <mxCell id="_yWJ8XgYvZZ2svztFTC0-13" value="&lt;font color=&quot;#0000cc&quot; style=&quot;font-size: 45px;&quot;&gt;5&lt;/font&gt;" style="rounded=0;whiteSpace=wrap;html=1;strokeColor=none;fillColor=none;fontFamily=Times New Roman;fontSize=45;" vertex="1" parent="1">
          <mxGeometry x="150" y="140" width="60" height="60" as="geometry" />
        </mxCell>
        <mxCell id="_yWJ8XgYvZZ2svztFTC0-14" value="&lt;font color=&quot;#0000cc&quot; style=&quot;font-size: 45px;&quot;&gt;6&lt;/font&gt;" style="rounded=0;whiteSpace=wrap;html=1;strokeColor=none;fillColor=none;fontFamily=Times New Roman;fontSize=45;" vertex="1" parent="1">
          <mxGeometry x="240" y="140" width="60" height="60" as="geometry" />
        </mxCell>
        <mxCell id="_yWJ8XgYvZZ2svztFTC0-15" value="&lt;font color=&quot;#0000cc&quot; style=&quot;font-size: 45px;&quot;&gt;0&lt;/font&gt;" style="rounded=0;whiteSpace=wrap;html=1;strokeColor=none;fillColor=none;fontFamily=Times New Roman;fontSize=45;" vertex="1" parent="1">
          <mxGeometry x="-300" y="140" width="60" height="60" as="geometry" />
        </mxCell>
        <mxCell id="_yWJ8XgYvZZ2svztFTC0-16" value="&lt;font color=&quot;#0000cc&quot; style=&quot;font-size: 45px;&quot;&gt;Index:&lt;/font&gt;" style="rounded=0;whiteSpace=wrap;html=1;strokeColor=none;fillColor=none;align=right;fontFamily=Times New Roman;fontSize=45;" vertex="1" parent="1">
          <mxGeometry x="-390" y="140" width="60" height="60" as="geometry" />
        </mxCell>
        <mxCell id="_yWJ8XgYvZZ2svztFTC0-17" value="&lt;span style=&quot;font-size: 45px;&quot;&gt;init:&lt;/span&gt;" style="rounded=0;whiteSpace=wrap;html=1;fontFamily=Times New Roman;fillColor=none;strokeColor=none;align=right;fontSize=45;" vertex="1" parent="1">
          <mxGeometry x="-390" y="210" width="60" height="60" as="geometry" />
        </mxCell>
        <mxCell id="_yWJ8XgYvZZ2svztFTC0-18" value="&lt;font style=&quot;font-size: 45px;&quot;&gt;3&lt;/font&gt;" style="rounded=0;whiteSpace=wrap;html=1;fontFamily=Times New Roman;fontSize=45;" vertex="1" parent="1">
          <mxGeometry x="-300" y="310" width="60" height="60" as="geometry" />
        </mxCell>
        <mxCell id="_yWJ8XgYvZZ2svztFTC0-19" value="&lt;font style=&quot;font-size: 45px;&quot;&gt;6&lt;/font&gt;" style="rounded=0;whiteSpace=wrap;html=1;fontFamily=Times New Roman;fontSize=45;" vertex="1" parent="1">
          <mxGeometry x="-210" y="310" width="60" height="60" as="geometry" />
        </mxCell>
        <mxCell id="_yWJ8XgYvZZ2svztFTC0-20" value="&lt;font style=&quot;font-size: 45px;&quot;&gt;2&lt;/font&gt;" style="rounded=0;whiteSpace=wrap;html=1;fontFamily=Times New Roman;fontSize=45;" vertex="1" parent="1">
          <mxGeometry x="-120" y="310" width="60" height="60" as="geometry" />
        </mxCell>
        <mxCell id="_yWJ8XgYvZZ2svztFTC0-21" value="&lt;font style=&quot;font-size: 45px;&quot;&gt;5&lt;/font&gt;" style="rounded=0;whiteSpace=wrap;html=1;fontFamily=Times New Roman;fontSize=45;" vertex="1" parent="1">
          <mxGeometry x="-30" y="310" width="60" height="60" as="geometry" />
        </mxCell>
        <mxCell id="_yWJ8XgYvZZ2svztFTC0-22" value="&lt;font style=&quot;font-size: 45px;&quot;&gt;4&lt;/font&gt;" style="rounded=0;whiteSpace=wrap;html=1;fontFamily=Times New Roman;fontSize=45;" vertex="1" parent="1">
          <mxGeometry x="60" y="310" width="60" height="60" as="geometry" />
        </mxCell>
        <mxCell id="_yWJ8XgYvZZ2svztFTC0-24" value="&lt;font style=&quot;font-size: 45px;&quot;&gt;7&lt;/font&gt;" style="rounded=0;whiteSpace=wrap;html=1;fontFamily=Times New Roman;fontSize=45;" vertex="1" parent="1">
          <mxGeometry x="240" y="310" width="60" height="60" as="geometry" />
        </mxCell>
        <mxCell id="_yWJ8XgYvZZ2svztFTC0-25" value="&lt;span style=&quot;font-size: 45px;&quot;&gt;odd comp 1:&lt;/span&gt;" style="rounded=0;whiteSpace=wrap;html=1;fontFamily=Times New Roman;fillColor=none;strokeColor=none;align=right;fontSize=45;" vertex="1" parent="1">
          <mxGeometry x="-580" y="310" width="250" height="60" as="geometry" />
        </mxCell>
        <mxCell id="_yWJ8XgYvZZ2svztFTC0-31" value="" style="rounded=0;whiteSpace=wrap;html=1;fontFamily=Times New Roman;fontSize=45;fontColor=#0000CC;fillColor=none;strokeWidth=4;strokeColor=#FF3333;sketch=0;glass=0;" vertex="1" parent="1">
          <mxGeometry x="-40" y="300" width="170" height="80" as="geometry" />
        </mxCell>
        <mxCell id="_yWJ8XgYvZZ2svztFTC0-53" value="&lt;font style=&quot;font-size: 45px;&quot;&gt;3&lt;/font&gt;" style="rounded=0;whiteSpace=wrap;html=1;fontFamily=Times New Roman;fontSize=45;" vertex="1" parent="1">
          <mxGeometry x="-300" y="400" width="60" height="60" as="geometry" />
        </mxCell>
        <mxCell id="_yWJ8XgYvZZ2svztFTC0-54" value="&lt;font style=&quot;font-size: 45px;&quot;&gt;2&lt;/font&gt;" style="rounded=0;whiteSpace=wrap;html=1;fontFamily=Times New Roman;fontSize=45;" vertex="1" parent="1">
          <mxGeometry x="-210" y="400" width="60" height="60" as="geometry" />
        </mxCell>
        <mxCell id="_yWJ8XgYvZZ2svztFTC0-183" style="edgeStyle=orthogonalEdgeStyle;rounded=0;orthogonalLoop=1;jettySize=auto;html=1;exitX=0;exitY=0.5;exitDx=0;exitDy=0;entryX=1;entryY=0.5;entryDx=0;entryDy=0;fontFamily=Times New Roman;fontSize=45;fontColor=#0000CC;startArrow=classic;startFill=1;" edge="1" parent="1" source="_yWJ8XgYvZZ2svztFTC0-55" target="_yWJ8XgYvZZ2svztFTC0-54">
          <mxGeometry relative="1" as="geometry" />
        </mxCell>
        <mxCell id="_yWJ8XgYvZZ2svztFTC0-55" value="&lt;font style=&quot;font-size: 45px;&quot;&gt;6&lt;/font&gt;" style="rounded=0;whiteSpace=wrap;html=1;fontFamily=Times New Roman;fontSize=45;" vertex="1" parent="1">
          <mxGeometry x="-120" y="400" width="60" height="60" as="geometry" />
        </mxCell>
        <mxCell id="_yWJ8XgYvZZ2svztFTC0-184" value="" style="edgeStyle=orthogonalEdgeStyle;rounded=0;orthogonalLoop=1;jettySize=auto;html=1;fontFamily=Times New Roman;fontSize=45;fontColor=#0000CC;startArrow=classic;startFill=1;endArrow=classic;endFill=1;" edge="1" parent="1" source="_yWJ8XgYvZZ2svztFTC0-56" target="_yWJ8XgYvZZ2svztFTC0-57">
          <mxGeometry relative="1" as="geometry" />
        </mxCell>
        <mxCell id="_yWJ8XgYvZZ2svztFTC0-56" value="&lt;font style=&quot;font-size: 45px;&quot;&gt;4&lt;/font&gt;" style="rounded=0;whiteSpace=wrap;html=1;fontFamily=Times New Roman;fontSize=45;" vertex="1" parent="1">
          <mxGeometry x="-30" y="400" width="60" height="60" as="geometry" />
        </mxCell>
        <mxCell id="_yWJ8XgYvZZ2svztFTC0-57" value="&lt;font style=&quot;font-size: 45px;&quot;&gt;5&lt;/font&gt;" style="rounded=0;whiteSpace=wrap;html=1;fontFamily=Times New Roman;fontSize=45;" vertex="1" parent="1">
          <mxGeometry x="60" y="400" width="60" height="60" as="geometry" />
        </mxCell>
        <mxCell id="_yWJ8XgYvZZ2svztFTC0-58" value="&lt;font style=&quot;font-size: 45px;&quot;&gt;1&lt;/font&gt;" style="rounded=0;whiteSpace=wrap;html=1;fontFamily=Times New Roman;fontSize=45;" vertex="1" parent="1">
          <mxGeometry x="150" y="400" width="60" height="60" as="geometry" />
        </mxCell>
        <mxCell id="_yWJ8XgYvZZ2svztFTC0-59" value="&lt;font style=&quot;font-size: 45px;&quot;&gt;7&lt;/font&gt;" style="rounded=0;whiteSpace=wrap;html=1;fontFamily=Times New Roman;fontSize=45;" vertex="1" parent="1">
          <mxGeometry x="240" y="400" width="60" height="60" as="geometry" />
        </mxCell>
        <mxCell id="_yWJ8XgYvZZ2svztFTC0-60" value="&lt;span style=&quot;font-size: 45px;&quot;&gt;odd swap 1:&lt;/span&gt;" style="rounded=0;whiteSpace=wrap;html=1;fontFamily=Times New Roman;fillColor=none;strokeColor=none;align=right;fontSize=45;" vertex="1" parent="1">
          <mxGeometry x="-560" y="400" width="230" height="60" as="geometry" />
        </mxCell>
        <mxCell id="_yWJ8XgYvZZ2svztFTC0-67" value="&lt;font style=&quot;font-size: 45px;&quot;&gt;3&lt;/font&gt;" style="rounded=0;whiteSpace=wrap;html=1;fontFamily=Times New Roman;fontSize=45;" vertex="1" parent="1">
          <mxGeometry x="-300" y="490" width="60" height="60" as="geometry" />
        </mxCell>
        <mxCell id="_yWJ8XgYvZZ2svztFTC0-68" value="&lt;font style=&quot;font-size: 45px;&quot;&gt;2&lt;/font&gt;" style="rounded=0;whiteSpace=wrap;html=1;fontFamily=Times New Roman;fontSize=45;" vertex="1" parent="1">
          <mxGeometry x="-210" y="490" width="60" height="60" as="geometry" />
        </mxCell>
        <mxCell id="_yWJ8XgYvZZ2svztFTC0-69" value="&lt;font style=&quot;font-size: 45px;&quot;&gt;6&lt;/font&gt;" style="rounded=0;whiteSpace=wrap;html=1;fontFamily=Times New Roman;fontSize=45;" vertex="1" parent="1">
          <mxGeometry x="-120" y="490" width="60" height="60" as="geometry" />
        </mxCell>
        <mxCell id="_yWJ8XgYvZZ2svztFTC0-70" value="&lt;font style=&quot;font-size: 45px;&quot;&gt;4&lt;/font&gt;" style="rounded=0;whiteSpace=wrap;html=1;fontFamily=Times New Roman;fontSize=45;" vertex="1" parent="1">
          <mxGeometry x="-30" y="490" width="60" height="60" as="geometry" />
        </mxCell>
        <mxCell id="_yWJ8XgYvZZ2svztFTC0-71" value="&lt;font style=&quot;font-size: 45px;&quot;&gt;5&lt;/font&gt;" style="rounded=0;whiteSpace=wrap;html=1;fontFamily=Times New Roman;fontSize=45;" vertex="1" parent="1">
          <mxGeometry x="60" y="490" width="60" height="60" as="geometry" />
        </mxCell>
        <mxCell id="_yWJ8XgYvZZ2svztFTC0-72" value="&lt;font style=&quot;font-size: 45px;&quot;&gt;1&lt;/font&gt;" style="rounded=0;whiteSpace=wrap;html=1;fontFamily=Times New Roman;fontSize=45;" vertex="1" parent="1">
          <mxGeometry x="150" y="490" width="60" height="60" as="geometry" />
        </mxCell>
        <mxCell id="_yWJ8XgYvZZ2svztFTC0-73" value="&lt;font style=&quot;font-size: 45px;&quot;&gt;7&lt;/font&gt;" style="rounded=0;whiteSpace=wrap;html=1;fontFamily=Times New Roman;fontSize=45;" vertex="1" parent="1">
          <mxGeometry x="240" y="490" width="60" height="60" as="geometry" />
        </mxCell>
        <mxCell id="_yWJ8XgYvZZ2svztFTC0-74" value="&lt;span style=&quot;font-size: 45px;&quot;&gt;even comp 1:&lt;/span&gt;" style="rounded=0;whiteSpace=wrap;html=1;fontFamily=Times New Roman;fillColor=none;strokeColor=none;align=right;fontSize=45;" vertex="1" parent="1">
          <mxGeometry x="-580" y="490" width="250" height="60" as="geometry" />
        </mxCell>
        <mxCell id="_yWJ8XgYvZZ2svztFTC0-78" value="&lt;font style=&quot;font-size: 45px;&quot;&gt;2&lt;/font&gt;" style="rounded=0;whiteSpace=wrap;html=1;fontFamily=Times New Roman;fontSize=45;" vertex="1" parent="1">
          <mxGeometry x="-300" y="580" width="60" height="60" as="geometry" />
        </mxCell>
        <mxCell id="_yWJ8XgYvZZ2svztFTC0-185" value="" style="edgeStyle=orthogonalEdgeStyle;rounded=0;orthogonalLoop=1;jettySize=auto;html=1;fontFamily=Times New Roman;fontSize=45;fontColor=#0000CC;startArrow=classic;startFill=1;endArrow=classic;endFill=1;" edge="1" parent="1" source="_yWJ8XgYvZZ2svztFTC0-79" target="_yWJ8XgYvZZ2svztFTC0-78">
          <mxGeometry relative="1" as="geometry" />
        </mxCell>
        <mxCell id="_yWJ8XgYvZZ2svztFTC0-79" value="&lt;font style=&quot;font-size: 45px;&quot;&gt;3&lt;/font&gt;" style="rounded=0;whiteSpace=wrap;html=1;fontFamily=Times New Roman;fontSize=45;" vertex="1" parent="1">
          <mxGeometry x="-210" y="580" width="60" height="60" as="geometry" />
        </mxCell>
        <mxCell id="_yWJ8XgYvZZ2svztFTC0-80" value="&lt;font style=&quot;font-size: 45px;&quot;&gt;4&lt;/font&gt;" style="rounded=0;whiteSpace=wrap;html=1;fontFamily=Times New Roman;fontSize=45;" vertex="1" parent="1">
          <mxGeometry x="-120" y="580" width="60" height="60" as="geometry" />
        </mxCell>
        <mxCell id="_yWJ8XgYvZZ2svztFTC0-186" value="" style="edgeStyle=orthogonalEdgeStyle;rounded=0;orthogonalLoop=1;jettySize=auto;html=1;fontFamily=Times New Roman;fontSize=45;fontColor=#0000CC;startArrow=classic;startFill=1;endArrow=classic;endFill=1;" edge="1" parent="1" source="_yWJ8XgYvZZ2svztFTC0-81" target="_yWJ8XgYvZZ2svztFTC0-80">
          <mxGeometry relative="1" as="geometry" />
        </mxCell>
        <mxCell id="_yWJ8XgYvZZ2svztFTC0-81" value="&lt;font style=&quot;font-size: 45px;&quot;&gt;6&lt;/font&gt;" style="rounded=0;whiteSpace=wrap;html=1;fontFamily=Times New Roman;fontSize=45;" vertex="1" parent="1">
          <mxGeometry x="-30" y="580" width="60" height="60" as="geometry" />
        </mxCell>
        <mxCell id="_yWJ8XgYvZZ2svztFTC0-187" value="" style="edgeStyle=orthogonalEdgeStyle;rounded=0;orthogonalLoop=1;jettySize=auto;html=1;fontFamily=Times New Roman;fontSize=45;fontColor=#0000CC;startArrow=classic;startFill=1;endArrow=classic;endFill=1;" edge="1" parent="1" source="_yWJ8XgYvZZ2svztFTC0-82" target="_yWJ8XgYvZZ2svztFTC0-83">
          <mxGeometry relative="1" as="geometry" />
        </mxCell>
        <mxCell id="_yWJ8XgYvZZ2svztFTC0-82" value="&lt;font style=&quot;font-size: 45px;&quot;&gt;1&lt;/font&gt;" style="rounded=0;whiteSpace=wrap;html=1;fontFamily=Times New Roman;fontSize=45;" vertex="1" parent="1">
          <mxGeometry x="60" y="580" width="60" height="60" as="geometry" />
        </mxCell>
        <mxCell id="_yWJ8XgYvZZ2svztFTC0-83" value="&lt;font style=&quot;font-size: 45px;&quot;&gt;5&lt;/font&gt;" style="rounded=0;whiteSpace=wrap;html=1;fontFamily=Times New Roman;fontSize=45;" vertex="1" parent="1">
          <mxGeometry x="150" y="580" width="60" height="60" as="geometry" />
        </mxCell>
        <mxCell id="_yWJ8XgYvZZ2svztFTC0-84" value="&lt;font style=&quot;font-size: 45px;&quot;&gt;7&lt;/font&gt;" style="rounded=0;whiteSpace=wrap;html=1;fontFamily=Times New Roman;fontSize=45;" vertex="1" parent="1">
          <mxGeometry x="240" y="580" width="60" height="60" as="geometry" />
        </mxCell>
        <mxCell id="_yWJ8XgYvZZ2svztFTC0-85" value="&lt;span style=&quot;font-size: 45px;&quot;&gt;even swap 1:&lt;/span&gt;" style="rounded=0;whiteSpace=wrap;html=1;fontFamily=Times New Roman;fillColor=none;strokeColor=none;align=right;fontSize=45;" vertex="1" parent="1">
          <mxGeometry x="-570" y="580" width="240" height="60" as="geometry" />
        </mxCell>
        <mxCell id="_yWJ8XgYvZZ2svztFTC0-90" value="" style="rounded=0;whiteSpace=wrap;html=1;fontFamily=Times New Roman;fontSize=45;fontColor=#0000CC;fillColor=none;strokeWidth=4;strokeColor=#FF3333;sketch=0;glass=0;" vertex="1" parent="1">
          <mxGeometry x="50" y="480" width="170" height="80" as="geometry" />
        </mxCell>
        <mxCell id="_yWJ8XgYvZZ2svztFTC0-91" value="" style="rounded=0;whiteSpace=wrap;html=1;fontFamily=Times New Roman;fontSize=45;fontColor=#0000CC;fillColor=none;strokeWidth=4;strokeColor=#FF3333;sketch=0;glass=0;" vertex="1" parent="1">
          <mxGeometry x="-310" y="480" width="170" height="80" as="geometry" />
        </mxCell>
        <mxCell id="_yWJ8XgYvZZ2svztFTC0-115" value="&lt;font style=&quot;font-size: 45px;&quot;&gt;2&lt;/font&gt;" style="rounded=0;whiteSpace=wrap;html=1;fontFamily=Times New Roman;fontSize=45;" vertex="1" parent="1">
          <mxGeometry x="-300" y="670" width="60" height="60" as="geometry" />
        </mxCell>
        <mxCell id="_yWJ8XgYvZZ2svztFTC0-116" value="&lt;font style=&quot;font-size: 45px;&quot;&gt;3&lt;/font&gt;" style="rounded=0;whiteSpace=wrap;html=1;fontFamily=Times New Roman;fontSize=45;" vertex="1" parent="1">
          <mxGeometry x="-210" y="670" width="60" height="60" as="geometry" />
        </mxCell>
        <mxCell id="_yWJ8XgYvZZ2svztFTC0-117" value="&lt;font style=&quot;font-size: 45px;&quot;&gt;4&lt;/font&gt;" style="rounded=0;whiteSpace=wrap;html=1;fontFamily=Times New Roman;fontSize=45;" vertex="1" parent="1">
          <mxGeometry x="-120" y="670" width="60" height="60" as="geometry" />
        </mxCell>
        <mxCell id="_yWJ8XgYvZZ2svztFTC0-118" value="&lt;font style=&quot;font-size: 45px;&quot;&gt;6&lt;/font&gt;" style="rounded=0;whiteSpace=wrap;html=1;fontFamily=Times New Roman;fontSize=45;" vertex="1" parent="1">
          <mxGeometry x="-30" y="670" width="60" height="60" as="geometry" />
        </mxCell>
        <mxCell id="_yWJ8XgYvZZ2svztFTC0-119" value="&lt;font style=&quot;font-size: 45px;&quot;&gt;1&lt;/font&gt;" style="rounded=0;whiteSpace=wrap;html=1;fontFamily=Times New Roman;fontSize=45;" vertex="1" parent="1">
          <mxGeometry x="60" y="670" width="60" height="60" as="geometry" />
        </mxCell>
        <mxCell id="_yWJ8XgYvZZ2svztFTC0-120" value="&lt;font style=&quot;font-size: 45px;&quot;&gt;5&lt;/font&gt;" style="rounded=0;whiteSpace=wrap;html=1;fontFamily=Times New Roman;fontSize=45;" vertex="1" parent="1">
          <mxGeometry x="150" y="670" width="60" height="60" as="geometry" />
        </mxCell>
        <mxCell id="_yWJ8XgYvZZ2svztFTC0-121" value="&lt;font style=&quot;font-size: 45px;&quot;&gt;7&lt;/font&gt;" style="rounded=0;whiteSpace=wrap;html=1;fontFamily=Times New Roman;fontSize=45;" vertex="1" parent="1">
          <mxGeometry x="240" y="670" width="60" height="60" as="geometry" />
        </mxCell>
        <mxCell id="_yWJ8XgYvZZ2svztFTC0-122" value="&lt;span style=&quot;font-size: 45px;&quot;&gt;odd comp 2:&lt;/span&gt;" style="rounded=0;whiteSpace=wrap;html=1;fontFamily=Times New Roman;fillColor=none;strokeColor=none;align=right;fontSize=45;" vertex="1" parent="1">
          <mxGeometry x="-580" y="670" width="250" height="60" as="geometry" />
        </mxCell>
        <mxCell id="_yWJ8XgYvZZ2svztFTC0-126" value="&lt;font style=&quot;font-size: 45px;&quot;&gt;2&lt;/font&gt;" style="rounded=0;whiteSpace=wrap;html=1;fontFamily=Times New Roman;fontSize=45;" vertex="1" parent="1">
          <mxGeometry x="-300" y="760" width="60" height="60" as="geometry" />
        </mxCell>
        <mxCell id="_yWJ8XgYvZZ2svztFTC0-127" value="&lt;font style=&quot;font-size: 45px;&quot;&gt;3&lt;/font&gt;" style="rounded=0;whiteSpace=wrap;html=1;fontFamily=Times New Roman;fontSize=45;" vertex="1" parent="1">
          <mxGeometry x="-210" y="760" width="60" height="60" as="geometry" />
        </mxCell>
        <mxCell id="_yWJ8XgYvZZ2svztFTC0-128" value="&lt;font style=&quot;font-size: 45px;&quot;&gt;4&lt;/font&gt;" style="rounded=0;whiteSpace=wrap;html=1;fontFamily=Times New Roman;fontSize=45;" vertex="1" parent="1">
          <mxGeometry x="-120" y="760" width="60" height="60" as="geometry" />
        </mxCell>
        <mxCell id="_yWJ8XgYvZZ2svztFTC0-129" value="&lt;font style=&quot;font-size: 45px;&quot;&gt;1&lt;/font&gt;" style="rounded=0;whiteSpace=wrap;html=1;fontFamily=Times New Roman;fontSize=45;" vertex="1" parent="1">
          <mxGeometry x="-30" y="760" width="60" height="60" as="geometry" />
        </mxCell>
        <mxCell id="_yWJ8XgYvZZ2svztFTC0-188" value="" style="edgeStyle=orthogonalEdgeStyle;rounded=0;orthogonalLoop=1;jettySize=auto;html=1;fontFamily=Times New Roman;fontSize=45;fontColor=#0000CC;startArrow=classic;startFill=1;endArrow=classic;endFill=1;" edge="1" parent="1" source="_yWJ8XgYvZZ2svztFTC0-130" target="_yWJ8XgYvZZ2svztFTC0-129">
          <mxGeometry relative="1" as="geometry" />
        </mxCell>
        <mxCell id="_yWJ8XgYvZZ2svztFTC0-130" value="&lt;font style=&quot;font-size: 45px;&quot;&gt;6&lt;/font&gt;" style="rounded=0;whiteSpace=wrap;html=1;fontFamily=Times New Roman;fontSize=45;" vertex="1" parent="1">
          <mxGeometry x="60" y="760" width="60" height="60" as="geometry" />
        </mxCell>
        <mxCell id="_yWJ8XgYvZZ2svztFTC0-131" value="&lt;font style=&quot;font-size: 45px;&quot;&gt;5&lt;/font&gt;" style="rounded=0;whiteSpace=wrap;html=1;fontFamily=Times New Roman;fontSize=45;" vertex="1" parent="1">
          <mxGeometry x="150" y="760" width="60" height="60" as="geometry" />
        </mxCell>
        <mxCell id="_yWJ8XgYvZZ2svztFTC0-132" value="&lt;font style=&quot;font-size: 45px;&quot;&gt;7&lt;/font&gt;" style="rounded=0;whiteSpace=wrap;html=1;fontFamily=Times New Roman;fontSize=45;" vertex="1" parent="1">
          <mxGeometry x="240" y="760" width="60" height="60" as="geometry" />
        </mxCell>
        <mxCell id="_yWJ8XgYvZZ2svztFTC0-133" value="&lt;span style=&quot;font-size: 45px;&quot;&gt;odd swap 2:&lt;/span&gt;" style="rounded=0;whiteSpace=wrap;html=1;fontFamily=Times New Roman;fillColor=none;strokeColor=none;align=right;fontSize=45;" vertex="1" parent="1">
          <mxGeometry x="-560" y="760" width="230" height="60" as="geometry" />
        </mxCell>
        <mxCell id="_yWJ8XgYvZZ2svztFTC0-162" value="&lt;font style=&quot;font-size: 45px;&quot;&gt;2&lt;/font&gt;" style="rounded=0;whiteSpace=wrap;html=1;fontFamily=Times New Roman;fontSize=45;" vertex="1" parent="1">
          <mxGeometry x="-300" y="850" width="60" height="60" as="geometry" />
        </mxCell>
        <mxCell id="_yWJ8XgYvZZ2svztFTC0-163" value="&lt;font style=&quot;font-size: 45px;&quot;&gt;3&lt;/font&gt;" style="rounded=0;whiteSpace=wrap;html=1;fontFamily=Times New Roman;fontSize=45;" vertex="1" parent="1">
          <mxGeometry x="-210" y="850" width="60" height="60" as="geometry" />
        </mxCell>
        <mxCell id="_yWJ8XgYvZZ2svztFTC0-164" value="&lt;font style=&quot;font-size: 45px;&quot;&gt;4&lt;/font&gt;" style="rounded=0;whiteSpace=wrap;html=1;fontFamily=Times New Roman;fontSize=45;" vertex="1" parent="1">
          <mxGeometry x="-120" y="850" width="60" height="60" as="geometry" />
        </mxCell>
        <mxCell id="_yWJ8XgYvZZ2svztFTC0-165" value="&lt;font style=&quot;font-size: 45px;&quot;&gt;1&lt;/font&gt;" style="rounded=0;whiteSpace=wrap;html=1;fontFamily=Times New Roman;fontSize=45;" vertex="1" parent="1">
          <mxGeometry x="-30" y="850" width="60" height="60" as="geometry" />
        </mxCell>
        <mxCell id="_yWJ8XgYvZZ2svztFTC0-166" value="&lt;font style=&quot;font-size: 45px;&quot;&gt;6&lt;/font&gt;" style="rounded=0;whiteSpace=wrap;html=1;fontFamily=Times New Roman;fontSize=45;" vertex="1" parent="1">
          <mxGeometry x="60" y="850" width="60" height="60" as="geometry" />
        </mxCell>
        <mxCell id="_yWJ8XgYvZZ2svztFTC0-167" value="&lt;font style=&quot;font-size: 45px;&quot;&gt;5&lt;/font&gt;" style="rounded=0;whiteSpace=wrap;html=1;fontFamily=Times New Roman;fontSize=45;" vertex="1" parent="1">
          <mxGeometry x="150" y="850" width="60" height="60" as="geometry" />
        </mxCell>
        <mxCell id="_yWJ8XgYvZZ2svztFTC0-168" value="&lt;font style=&quot;font-size: 45px;&quot;&gt;7&lt;/font&gt;" style="rounded=0;whiteSpace=wrap;html=1;fontFamily=Times New Roman;fontSize=45;" vertex="1" parent="1">
          <mxGeometry x="240" y="850" width="60" height="60" as="geometry" />
        </mxCell>
        <mxCell id="_yWJ8XgYvZZ2svztFTC0-169" value="&lt;span style=&quot;font-size: 45px;&quot;&gt;even comp 2:&lt;/span&gt;" style="rounded=0;whiteSpace=wrap;html=1;fontFamily=Times New Roman;fillColor=none;strokeColor=none;align=right;fontSize=45;" vertex="1" parent="1">
          <mxGeometry x="-600" y="850" width="270" height="60" as="geometry" />
        </mxCell>
        <mxCell id="_yWJ8XgYvZZ2svztFTC0-171" value="&lt;font style=&quot;font-size: 45px;&quot;&gt;2&lt;/font&gt;" style="rounded=0;whiteSpace=wrap;html=1;fontFamily=Times New Roman;fontSize=45;" vertex="1" parent="1">
          <mxGeometry x="-300" y="940" width="60" height="60" as="geometry" />
        </mxCell>
        <mxCell id="_yWJ8XgYvZZ2svztFTC0-172" value="&lt;font style=&quot;font-size: 45px;&quot;&gt;3&lt;/font&gt;" style="rounded=0;whiteSpace=wrap;html=1;fontFamily=Times New Roman;fontSize=45;" vertex="1" parent="1">
          <mxGeometry x="-210" y="940" width="60" height="60" as="geometry" />
        </mxCell>
        <mxCell id="_yWJ8XgYvZZ2svztFTC0-189" value="" style="edgeStyle=orthogonalEdgeStyle;rounded=0;orthogonalLoop=1;jettySize=auto;html=1;fontFamily=Times New Roman;fontSize=45;fontColor=#0000CC;startArrow=classic;startFill=1;endArrow=classic;endFill=1;" edge="1" parent="1" source="_yWJ8XgYvZZ2svztFTC0-173" target="_yWJ8XgYvZZ2svztFTC0-174">
          <mxGeometry relative="1" as="geometry" />
        </mxCell>
        <mxCell id="_yWJ8XgYvZZ2svztFTC0-173" value="&lt;span style=&quot;font-size: 45px;&quot;&gt;1&lt;/span&gt;" style="rounded=0;whiteSpace=wrap;html=1;fontFamily=Times New Roman;fontSize=45;" vertex="1" parent="1">
          <mxGeometry x="-120" y="940" width="60" height="60" as="geometry" />
        </mxCell>
        <mxCell id="_yWJ8XgYvZZ2svztFTC0-174" value="&lt;span style=&quot;font-size: 45px;&quot;&gt;4&lt;/span&gt;" style="rounded=0;whiteSpace=wrap;html=1;fontFamily=Times New Roman;fontSize=45;" vertex="1" parent="1">
          <mxGeometry x="-30" y="940" width="60" height="60" as="geometry" />
        </mxCell>
        <mxCell id="_yWJ8XgYvZZ2svztFTC0-190" value="" style="edgeStyle=orthogonalEdgeStyle;rounded=0;orthogonalLoop=1;jettySize=auto;html=1;fontFamily=Times New Roman;fontSize=45;fontColor=#0000CC;startArrow=classic;startFill=1;endArrow=classic;endFill=1;" edge="1" parent="1" source="_yWJ8XgYvZZ2svztFTC0-175" target="_yWJ8XgYvZZ2svztFTC0-176">
          <mxGeometry relative="1" as="geometry" />
        </mxCell>
        <mxCell id="_yWJ8XgYvZZ2svztFTC0-175" value="&lt;font style=&quot;font-size: 45px;&quot;&gt;5&lt;/font&gt;" style="rounded=0;whiteSpace=wrap;html=1;fontFamily=Times New Roman;fontSize=45;" vertex="1" parent="1">
          <mxGeometry x="60" y="940" width="60" height="60" as="geometry" />
        </mxCell>
        <mxCell id="_yWJ8XgYvZZ2svztFTC0-176" value="&lt;font style=&quot;font-size: 45px;&quot;&gt;6&lt;/font&gt;" style="rounded=0;whiteSpace=wrap;html=1;fontFamily=Times New Roman;fontSize=45;" vertex="1" parent="1">
          <mxGeometry x="150" y="940" width="60" height="60" as="geometry" />
        </mxCell>
        <mxCell id="_yWJ8XgYvZZ2svztFTC0-177" value="&lt;font style=&quot;font-size: 45px;&quot;&gt;7&lt;/font&gt;" style="rounded=0;whiteSpace=wrap;html=1;fontFamily=Times New Roman;fontSize=45;" vertex="1" parent="1">
          <mxGeometry x="240" y="940" width="60" height="60" as="geometry" />
        </mxCell>
        <mxCell id="_yWJ8XgYvZZ2svztFTC0-178" value="&lt;span style=&quot;font-size: 45px;&quot;&gt;even swap 2:&lt;/span&gt;" style="rounded=0;whiteSpace=wrap;html=1;fontFamily=Times New Roman;fillColor=none;strokeColor=none;align=right;fontSize=45;" vertex="1" parent="1">
          <mxGeometry x="-590" y="940" width="260" height="60" as="geometry" />
        </mxCell>
        <mxCell id="_yWJ8XgYvZZ2svztFTC0-182" value="" style="rounded=0;whiteSpace=wrap;html=1;fontFamily=Times New Roman;fontSize=45;fontColor=#0000CC;fillColor=none;strokeWidth=2;strokeColor=#00CC00;sketch=0;glass=0;" vertex="1" parent="1">
          <mxGeometry x="-310" y="840" width="170" height="80" as="geometry" />
        </mxCell>
        <mxCell id="_yWJ8XgYvZZ2svztFTC0-193" value="" style="rounded=0;whiteSpace=wrap;html=1;fontFamily=Times New Roman;fontSize=45;fontColor=#0000CC;fillColor=none;strokeWidth=2;strokeColor=#00CC00;sketch=0;glass=0;" vertex="1" parent="1">
          <mxGeometry x="140" y="1010" width="170" height="80" as="geometry" />
        </mxCell>
        <mxCell id="_yWJ8XgYvZZ2svztFTC0-194" value="&lt;font style=&quot;font-size: 45px;&quot;&gt;2&lt;/font&gt;" style="rounded=0;whiteSpace=wrap;html=1;fontFamily=Times New Roman;fontSize=45;" vertex="1" parent="1">
          <mxGeometry x="-300" y="1020" width="60" height="60" as="geometry" />
        </mxCell>
        <mxCell id="_yWJ8XgYvZZ2svztFTC0-195" value="&lt;font style=&quot;font-size: 45px;&quot;&gt;3&lt;/font&gt;" style="rounded=0;whiteSpace=wrap;html=1;fontFamily=Times New Roman;fontSize=45;" vertex="1" parent="1">
          <mxGeometry x="-210" y="1020" width="60" height="60" as="geometry" />
        </mxCell>
        <mxCell id="_yWJ8XgYvZZ2svztFTC0-196" value="&lt;font style=&quot;font-size: 45px;&quot;&gt;1&lt;/font&gt;" style="rounded=0;whiteSpace=wrap;html=1;fontFamily=Times New Roman;fontSize=45;" vertex="1" parent="1">
          <mxGeometry x="-120" y="1020" width="60" height="60" as="geometry" />
        </mxCell>
        <mxCell id="_yWJ8XgYvZZ2svztFTC0-197" value="&lt;font style=&quot;font-size: 45px;&quot;&gt;4&lt;/font&gt;" style="rounded=0;whiteSpace=wrap;html=1;fontFamily=Times New Roman;fontSize=45;" vertex="1" parent="1">
          <mxGeometry x="-30" y="1020" width="60" height="60" as="geometry" />
        </mxCell>
        <mxCell id="_yWJ8XgYvZZ2svztFTC0-198" value="&lt;font style=&quot;font-size: 45px;&quot;&gt;5&lt;/font&gt;" style="rounded=0;whiteSpace=wrap;html=1;fontFamily=Times New Roman;fontSize=45;" vertex="1" parent="1">
          <mxGeometry x="60" y="1020" width="60" height="60" as="geometry" />
        </mxCell>
        <mxCell id="_yWJ8XgYvZZ2svztFTC0-199" value="&lt;font style=&quot;font-size: 45px;&quot;&gt;6&lt;/font&gt;" style="rounded=0;whiteSpace=wrap;html=1;fontFamily=Times New Roman;fontSize=45;" vertex="1" parent="1">
          <mxGeometry x="150" y="1020" width="60" height="60" as="geometry" />
        </mxCell>
        <mxCell id="_yWJ8XgYvZZ2svztFTC0-200" value="&lt;font style=&quot;font-size: 45px;&quot;&gt;7&lt;/font&gt;" style="rounded=0;whiteSpace=wrap;html=1;fontFamily=Times New Roman;fontSize=45;" vertex="1" parent="1">
          <mxGeometry x="240" y="1020" width="60" height="60" as="geometry" />
        </mxCell>
        <mxCell id="_yWJ8XgYvZZ2svztFTC0-201" value="&lt;span style=&quot;font-size: 45px;&quot;&gt;odd comp 3:&lt;/span&gt;" style="rounded=0;whiteSpace=wrap;html=1;fontFamily=Times New Roman;fillColor=none;strokeColor=none;align=right;fontSize=45;" vertex="1" parent="1">
          <mxGeometry x="-570" y="1020" width="240" height="60" as="geometry" />
        </mxCell>
        <mxCell id="_yWJ8XgYvZZ2svztFTC0-202" value="&lt;font style=&quot;font-size: 45px;&quot;&gt;2&lt;/font&gt;" style="rounded=0;whiteSpace=wrap;html=1;fontFamily=Times New Roman;fontSize=45;" vertex="1" parent="1">
          <mxGeometry x="-300" y="1110" width="60" height="60" as="geometry" />
        </mxCell>
        <mxCell id="_yWJ8XgYvZZ2svztFTC0-213" value="" style="edgeStyle=orthogonalEdgeStyle;rounded=0;orthogonalLoop=1;jettySize=auto;html=1;fontFamily=Times New Roman;fontSize=45;fontColor=#0000CC;startArrow=classic;startFill=1;endArrow=classic;endFill=1;" edge="1" parent="1" source="_yWJ8XgYvZZ2svztFTC0-203" target="_yWJ8XgYvZZ2svztFTC0-204">
          <mxGeometry relative="1" as="geometry" />
        </mxCell>
        <mxCell id="_yWJ8XgYvZZ2svztFTC0-203" value="&lt;font style=&quot;font-size: 45px;&quot;&gt;1&lt;/font&gt;" style="rounded=0;whiteSpace=wrap;html=1;fontFamily=Times New Roman;fontSize=45;" vertex="1" parent="1">
          <mxGeometry x="-210" y="1110" width="60" height="60" as="geometry" />
        </mxCell>
        <mxCell id="_yWJ8XgYvZZ2svztFTC0-204" value="&lt;font style=&quot;font-size: 45px;&quot;&gt;3&lt;/font&gt;" style="rounded=0;whiteSpace=wrap;html=1;fontFamily=Times New Roman;fontSize=45;" vertex="1" parent="1">
          <mxGeometry x="-120" y="1110" width="60" height="60" as="geometry" />
        </mxCell>
        <mxCell id="_yWJ8XgYvZZ2svztFTC0-205" value="&lt;font style=&quot;font-size: 45px;&quot;&gt;4&lt;/font&gt;" style="rounded=0;whiteSpace=wrap;html=1;fontFamily=Times New Roman;fontSize=45;" vertex="1" parent="1">
          <mxGeometry x="-30" y="1110" width="60" height="60" as="geometry" />
        </mxCell>
        <mxCell id="_yWJ8XgYvZZ2svztFTC0-207" value="&lt;font style=&quot;font-size: 45px;&quot;&gt;5&lt;/font&gt;" style="rounded=0;whiteSpace=wrap;html=1;fontFamily=Times New Roman;fontSize=45;" vertex="1" parent="1">
          <mxGeometry x="60" y="1110" width="60" height="60" as="geometry" />
        </mxCell>
        <mxCell id="_yWJ8XgYvZZ2svztFTC0-208" value="&lt;span style=&quot;font-size: 45px;&quot;&gt;6&lt;/span&gt;" style="rounded=0;whiteSpace=wrap;html=1;fontFamily=Times New Roman;fontSize=45;" vertex="1" parent="1">
          <mxGeometry x="150" y="1110" width="60" height="60" as="geometry" />
        </mxCell>
        <mxCell id="_yWJ8XgYvZZ2svztFTC0-209" value="&lt;font style=&quot;font-size: 45px;&quot;&gt;7&lt;/font&gt;" style="rounded=0;whiteSpace=wrap;html=1;fontFamily=Times New Roman;fontSize=45;" vertex="1" parent="1">
          <mxGeometry x="240" y="1110" width="60" height="60" as="geometry" />
        </mxCell>
        <mxCell id="_yWJ8XgYvZZ2svztFTC0-210" value="&lt;span style=&quot;font-size: 45px;&quot;&gt;odd swap 3:&lt;/span&gt;" style="rounded=0;whiteSpace=wrap;html=1;fontFamily=Times New Roman;fillColor=none;strokeColor=none;align=right;fontSize=45;" vertex="1" parent="1">
          <mxGeometry x="-560" y="1110" width="230" height="60" as="geometry" />
        </mxCell>
        <mxCell id="_yWJ8XgYvZZ2svztFTC0-211" value="" style="rounded=0;whiteSpace=wrap;html=1;fontFamily=Times New Roman;fontSize=45;fontColor=#0000CC;fillColor=none;strokeWidth=4;strokeColor=#FF3333;sketch=0;glass=0;" vertex="1" parent="1">
          <mxGeometry x="-220" y="1010" width="170" height="80" as="geometry" />
        </mxCell>
        <mxCell id="_yWJ8XgYvZZ2svztFTC0-212" value="" style="rounded=0;whiteSpace=wrap;html=1;fontFamily=Times New Roman;fontSize=45;fontColor=#0000CC;fillColor=none;strokeWidth=2;strokeColor=#00CC00;sketch=0;glass=0;" vertex="1" parent="1">
          <mxGeometry x="-40" y="1010" width="170" height="80" as="geometry" />
        </mxCell>
        <mxCell id="_yWJ8XgYvZZ2svztFTC0-240" value="" style="rounded=0;whiteSpace=wrap;html=1;fontFamily=Times New Roman;fontSize=45;fontColor=#0000CC;fillColor=none;strokeWidth=4;strokeColor=#FF3333;sketch=0;glass=0;" vertex="1" parent="1">
          <mxGeometry x="-310" y="1190" width="170" height="80" as="geometry" />
        </mxCell>
        <mxCell id="_yWJ8XgYvZZ2svztFTC0-242" value="&lt;span style=&quot;font-size: 45px;&quot;&gt;2&lt;/span&gt;" style="rounded=0;whiteSpace=wrap;html=1;fontFamily=Times New Roman;fontSize=45;" vertex="1" parent="1">
          <mxGeometry x="-300" y="1200" width="60" height="60" as="geometry" />
        </mxCell>
        <mxCell id="_yWJ8XgYvZZ2svztFTC0-243" value="&lt;span style=&quot;font-size: 45px;&quot;&gt;1&lt;/span&gt;" style="rounded=0;whiteSpace=wrap;html=1;fontFamily=Times New Roman;fontSize=45;" vertex="1" parent="1">
          <mxGeometry x="-210" y="1200" width="60" height="60" as="geometry" />
        </mxCell>
        <mxCell id="_yWJ8XgYvZZ2svztFTC0-244" value="&lt;font style=&quot;font-size: 45px;&quot;&gt;3&lt;/font&gt;" style="rounded=0;whiteSpace=wrap;html=1;fontFamily=Times New Roman;fontSize=45;" vertex="1" parent="1">
          <mxGeometry x="-120" y="1200" width="60" height="60" as="geometry" />
        </mxCell>
        <mxCell id="_yWJ8XgYvZZ2svztFTC0-245" value="&lt;font style=&quot;font-size: 45px;&quot;&gt;4&lt;/font&gt;" style="rounded=0;whiteSpace=wrap;html=1;fontFamily=Times New Roman;fontSize=45;" vertex="1" parent="1">
          <mxGeometry x="-30" y="1200" width="60" height="60" as="geometry" />
        </mxCell>
        <mxCell id="_yWJ8XgYvZZ2svztFTC0-246" value="&lt;font style=&quot;font-size: 45px;&quot;&gt;5&lt;/font&gt;" style="rounded=0;whiteSpace=wrap;html=1;fontFamily=Times New Roman;fontSize=45;" vertex="1" parent="1">
          <mxGeometry x="60" y="1200" width="60" height="60" as="geometry" />
        </mxCell>
        <mxCell id="_yWJ8XgYvZZ2svztFTC0-247" value="&lt;font style=&quot;font-size: 45px;&quot;&gt;6&lt;/font&gt;" style="rounded=0;whiteSpace=wrap;html=1;fontFamily=Times New Roman;fontSize=45;" vertex="1" parent="1">
          <mxGeometry x="150" y="1200" width="60" height="60" as="geometry" />
        </mxCell>
        <mxCell id="_yWJ8XgYvZZ2svztFTC0-248" value="&lt;font style=&quot;font-size: 45px;&quot;&gt;7&lt;/font&gt;" style="rounded=0;whiteSpace=wrap;html=1;fontFamily=Times New Roman;fontSize=45;" vertex="1" parent="1">
          <mxGeometry x="240" y="1200" width="60" height="60" as="geometry" />
        </mxCell>
        <mxCell id="_yWJ8XgYvZZ2svztFTC0-249" value="&lt;span style=&quot;font-size: 45px;&quot;&gt;even comp 3:&lt;/span&gt;" style="rounded=0;whiteSpace=wrap;html=1;fontFamily=Times New Roman;fillColor=none;strokeColor=none;align=right;fontSize=45;" vertex="1" parent="1">
          <mxGeometry x="-590" y="1200" width="260" height="60" as="geometry" />
        </mxCell>
        <mxCell id="_yWJ8XgYvZZ2svztFTC0-250" value="&lt;font style=&quot;font-size: 45px;&quot;&gt;1&lt;/font&gt;" style="rounded=0;whiteSpace=wrap;html=1;fontFamily=Times New Roman;fontSize=45;" vertex="1" parent="1">
          <mxGeometry x="-300" y="1290" width="60" height="60" as="geometry" />
        </mxCell>
        <mxCell id="_yWJ8XgYvZZ2svztFTC0-261" value="" style="edgeStyle=orthogonalEdgeStyle;rounded=0;orthogonalLoop=1;jettySize=auto;html=1;fontFamily=Times New Roman;fontSize=45;fontColor=#0000CC;startArrow=classic;startFill=1;endArrow=classic;endFill=1;" edge="1" parent="1" source="_yWJ8XgYvZZ2svztFTC0-251" target="_yWJ8XgYvZZ2svztFTC0-250">
          <mxGeometry relative="1" as="geometry" />
        </mxCell>
        <mxCell id="_yWJ8XgYvZZ2svztFTC0-251" value="&lt;font style=&quot;font-size: 45px;&quot;&gt;2&lt;/font&gt;" style="rounded=0;whiteSpace=wrap;html=1;fontFamily=Times New Roman;fontSize=45;" vertex="1" parent="1">
          <mxGeometry x="-210" y="1290" width="60" height="60" as="geometry" />
        </mxCell>
        <mxCell id="_yWJ8XgYvZZ2svztFTC0-253" value="&lt;span style=&quot;font-size: 45px;&quot;&gt;3&lt;/span&gt;" style="rounded=0;whiteSpace=wrap;html=1;fontFamily=Times New Roman;fontSize=45;" vertex="1" parent="1">
          <mxGeometry x="-120" y="1290" width="60" height="60" as="geometry" />
        </mxCell>
        <mxCell id="_yWJ8XgYvZZ2svztFTC0-254" value="&lt;span style=&quot;font-size: 45px;&quot;&gt;4&lt;/span&gt;" style="rounded=0;whiteSpace=wrap;html=1;fontFamily=Times New Roman;fontSize=45;" vertex="1" parent="1">
          <mxGeometry x="-30" y="1290" width="60" height="60" as="geometry" />
        </mxCell>
        <mxCell id="_yWJ8XgYvZZ2svztFTC0-256" value="&lt;font style=&quot;font-size: 45px;&quot;&gt;5&lt;/font&gt;" style="rounded=0;whiteSpace=wrap;html=1;fontFamily=Times New Roman;fontSize=45;" vertex="1" parent="1">
          <mxGeometry x="60" y="1290" width="60" height="60" as="geometry" />
        </mxCell>
        <mxCell id="_yWJ8XgYvZZ2svztFTC0-257" value="&lt;font style=&quot;font-size: 45px;&quot;&gt;6&lt;/font&gt;" style="rounded=0;whiteSpace=wrap;html=1;fontFamily=Times New Roman;fontSize=45;" vertex="1" parent="1">
          <mxGeometry x="150" y="1290" width="60" height="60" as="geometry" />
        </mxCell>
        <mxCell id="_yWJ8XgYvZZ2svztFTC0-258" value="&lt;font style=&quot;font-size: 45px;&quot;&gt;7&lt;/font&gt;" style="rounded=0;whiteSpace=wrap;html=1;fontFamily=Times New Roman;fontSize=45;" vertex="1" parent="1">
          <mxGeometry x="240" y="1290" width="60" height="60" as="geometry" />
        </mxCell>
        <mxCell id="_yWJ8XgYvZZ2svztFTC0-259" value="&lt;span style=&quot;font-size: 45px;&quot;&gt;even swap 3:&lt;/span&gt;" style="rounded=0;whiteSpace=wrap;html=1;fontFamily=Times New Roman;fillColor=none;strokeColor=none;align=right;fontSize=45;" vertex="1" parent="1">
          <mxGeometry x="-570" y="1290" width="240" height="60" as="geometry" />
        </mxCell>
        <mxCell id="_yWJ8XgYvZZ2svztFTC0-262" value="" style="rounded=0;whiteSpace=wrap;html=1;fontFamily=Times New Roman;fontSize=45;fontColor=#0000CC;fillColor=none;strokeWidth=2;strokeColor=#00CC00;sketch=0;glass=0;" vertex="1" parent="1">
          <mxGeometry x="-130" y="1190" width="170" height="80" as="geometry" />
        </mxCell>
        <mxCell id="_yWJ8XgYvZZ2svztFTC0-263" value="" style="rounded=0;whiteSpace=wrap;html=1;fontFamily=Times New Roman;fontSize=45;fontColor=#0000CC;fillColor=none;strokeWidth=2;strokeColor=#00CC00;sketch=0;glass=0;" vertex="1" parent="1">
          <mxGeometry x="50" y="1190" width="170" height="80" as="geometry" />
        </mxCell>
        <mxCell id="_yWJ8XgYvZZ2svztFTC0-264" value="&lt;font style=&quot;font-size: 45px;&quot;&gt;1&lt;/font&gt;" style="rounded=0;whiteSpace=wrap;html=1;fontFamily=Times New Roman;fontSize=45;" vertex="1" parent="1">
          <mxGeometry x="-300" y="1380" width="60" height="60" as="geometry" />
        </mxCell>
        <mxCell id="_yWJ8XgYvZZ2svztFTC0-266" value="&lt;font style=&quot;font-size: 45px;&quot;&gt;2&lt;/font&gt;" style="rounded=0;whiteSpace=wrap;html=1;fontFamily=Times New Roman;fontSize=45;" vertex="1" parent="1">
          <mxGeometry x="-210" y="1380" width="60" height="60" as="geometry" />
        </mxCell>
        <mxCell id="_yWJ8XgYvZZ2svztFTC0-267" value="&lt;span style=&quot;font-size: 45px;&quot;&gt;3&lt;/span&gt;" style="rounded=0;whiteSpace=wrap;html=1;fontFamily=Times New Roman;fontSize=45;" vertex="1" parent="1">
          <mxGeometry x="-120" y="1380" width="60" height="60" as="geometry" />
        </mxCell>
        <mxCell id="_yWJ8XgYvZZ2svztFTC0-268" value="&lt;span style=&quot;font-size: 45px;&quot;&gt;4&lt;/span&gt;" style="rounded=0;whiteSpace=wrap;html=1;fontFamily=Times New Roman;fontSize=45;" vertex="1" parent="1">
          <mxGeometry x="-30" y="1380" width="60" height="60" as="geometry" />
        </mxCell>
        <mxCell id="_yWJ8XgYvZZ2svztFTC0-269" value="&lt;font style=&quot;font-size: 45px;&quot;&gt;5&lt;/font&gt;" style="rounded=0;whiteSpace=wrap;html=1;fontFamily=Times New Roman;fontSize=45;" vertex="1" parent="1">
          <mxGeometry x="60" y="1380" width="60" height="60" as="geometry" />
        </mxCell>
        <mxCell id="_yWJ8XgYvZZ2svztFTC0-270" value="&lt;font style=&quot;font-size: 45px;&quot;&gt;6&lt;/font&gt;" style="rounded=0;whiteSpace=wrap;html=1;fontFamily=Times New Roman;fontSize=45;" vertex="1" parent="1">
          <mxGeometry x="150" y="1380" width="60" height="60" as="geometry" />
        </mxCell>
        <mxCell id="_yWJ8XgYvZZ2svztFTC0-271" value="&lt;font style=&quot;font-size: 45px;&quot;&gt;7&lt;/font&gt;" style="rounded=0;whiteSpace=wrap;html=1;fontFamily=Times New Roman;fontSize=45;" vertex="1" parent="1">
          <mxGeometry x="240" y="1380" width="60" height="60" as="geometry" />
        </mxCell>
        <mxCell id="_yWJ8XgYvZZ2svztFTC0-272" value="&lt;span style=&quot;font-size: 45px;&quot;&gt;odd comp 4:&lt;/span&gt;" style="rounded=0;whiteSpace=wrap;html=1;fontFamily=Times New Roman;fillColor=none;strokeColor=none;align=right;fontSize=45;" vertex="1" parent="1">
          <mxGeometry x="-570" y="1380" width="240" height="60" as="geometry" />
        </mxCell>
        <mxCell id="_yWJ8XgYvZZ2svztFTC0-273" value="&lt;font style=&quot;font-size: 45px;&quot;&gt;1&lt;/font&gt;" style="rounded=0;whiteSpace=wrap;html=1;fontFamily=Times New Roman;fontSize=45;" vertex="1" parent="1">
          <mxGeometry x="-300" y="1470" width="60" height="60" as="geometry" />
        </mxCell>
        <mxCell id="_yWJ8XgYvZZ2svztFTC0-274" value="&lt;font style=&quot;font-size: 45px;&quot;&gt;2&lt;/font&gt;" style="rounded=0;whiteSpace=wrap;html=1;fontFamily=Times New Roman;fontSize=45;" vertex="1" parent="1">
          <mxGeometry x="-210" y="1470" width="60" height="60" as="geometry" />
        </mxCell>
        <mxCell id="_yWJ8XgYvZZ2svztFTC0-275" value="&lt;span style=&quot;font-size: 45px;&quot;&gt;3&lt;/span&gt;" style="rounded=0;whiteSpace=wrap;html=1;fontFamily=Times New Roman;fontSize=45;" vertex="1" parent="1">
          <mxGeometry x="-120" y="1470" width="60" height="60" as="geometry" />
        </mxCell>
        <mxCell id="_yWJ8XgYvZZ2svztFTC0-276" value="&lt;span style=&quot;font-size: 45px;&quot;&gt;4&lt;/span&gt;" style="rounded=0;whiteSpace=wrap;html=1;fontFamily=Times New Roman;fontSize=45;" vertex="1" parent="1">
          <mxGeometry x="-30" y="1470" width="60" height="60" as="geometry" />
        </mxCell>
        <mxCell id="_yWJ8XgYvZZ2svztFTC0-277" value="&lt;font style=&quot;font-size: 45px;&quot;&gt;5&lt;/font&gt;" style="rounded=0;whiteSpace=wrap;html=1;fontFamily=Times New Roman;fontSize=45;" vertex="1" parent="1">
          <mxGeometry x="60" y="1470" width="60" height="60" as="geometry" />
        </mxCell>
        <mxCell id="_yWJ8XgYvZZ2svztFTC0-278" value="&lt;font style=&quot;font-size: 45px;&quot;&gt;6&lt;/font&gt;" style="rounded=0;whiteSpace=wrap;html=1;fontFamily=Times New Roman;fontSize=45;" vertex="1" parent="1">
          <mxGeometry x="150" y="1470" width="60" height="60" as="geometry" />
        </mxCell>
        <mxCell id="_yWJ8XgYvZZ2svztFTC0-279" value="&lt;font style=&quot;font-size: 45px;&quot;&gt;7&lt;/font&gt;" style="rounded=0;whiteSpace=wrap;html=1;fontFamily=Times New Roman;fontSize=45;" vertex="1" parent="1">
          <mxGeometry x="240" y="1470" width="60" height="60" as="geometry" />
        </mxCell>
        <mxCell id="_yWJ8XgYvZZ2svztFTC0-280" value="&lt;span style=&quot;font-size: 45px;&quot;&gt;even comp 4:&lt;/span&gt;" style="rounded=0;whiteSpace=wrap;html=1;fontFamily=Times New Roman;fillColor=none;strokeColor=none;align=right;fontSize=45;" vertex="1" parent="1">
          <mxGeometry x="-590" y="1470" width="260" height="60" as="geometry" />
        </mxCell>
        <mxCell id="_yWJ8XgYvZZ2svztFTC0-281" value="" style="rounded=0;whiteSpace=wrap;html=1;fontFamily=Times New Roman;fontSize=45;fontColor=#0000CC;fillColor=none;strokeWidth=2;strokeColor=#00CC00;sketch=0;glass=0;" vertex="1" parent="1">
          <mxGeometry x="-220" y="1370" width="170" height="80" as="geometry" />
        </mxCell>
        <mxCell id="_yWJ8XgYvZZ2svztFTC0-282" value="" style="rounded=0;whiteSpace=wrap;html=1;fontFamily=Times New Roman;fontSize=45;fontColor=#0000CC;fillColor=none;strokeWidth=2;strokeColor=#00CC00;sketch=0;glass=0;" vertex="1" parent="1">
          <mxGeometry x="-40" y="1370" width="170" height="80" as="geometry" />
        </mxCell>
        <mxCell id="_yWJ8XgYvZZ2svztFTC0-283" value="" style="rounded=0;whiteSpace=wrap;html=1;fontFamily=Times New Roman;fontSize=45;fontColor=#0000CC;fillColor=none;strokeWidth=2;strokeColor=#00CC00;sketch=0;glass=0;" vertex="1" parent="1">
          <mxGeometry x="140" y="1370" width="170" height="80" as="geometry" />
        </mxCell>
        <mxCell id="_yWJ8XgYvZZ2svztFTC0-284" value="" style="rounded=0;whiteSpace=wrap;html=1;fontFamily=Times New Roman;fontSize=45;fontColor=#0000CC;fillColor=none;strokeWidth=2;strokeColor=#00CC00;sketch=0;glass=0;" vertex="1" parent="1">
          <mxGeometry x="-310" y="1460" width="170" height="80" as="geometry" />
        </mxCell>
        <mxCell id="_yWJ8XgYvZZ2svztFTC0-285" value="" style="rounded=0;whiteSpace=wrap;html=1;fontFamily=Times New Roman;fontSize=45;fontColor=#0000CC;fillColor=none;strokeWidth=2;strokeColor=#00CC00;sketch=0;glass=0;" vertex="1" parent="1">
          <mxGeometry x="-130" y="1460" width="170" height="80" as="geometry" />
        </mxCell>
        <mxCell id="_yWJ8XgYvZZ2svztFTC0-286" value="" style="rounded=0;whiteSpace=wrap;html=1;fontFamily=Times New Roman;fontSize=45;fontColor=#0000CC;fillColor=none;strokeWidth=2;strokeColor=#00CC00;sketch=0;glass=0;" vertex="1" parent="1">
          <mxGeometry x="50" y="1460" width="170" height="80" as="geometry" />
        </mxCell>
        <mxCell id="_yWJ8XgYvZZ2svztFTC0-287" value="&lt;span style=&quot;font-size: 45px;&quot;&gt;Finished&lt;/span&gt;" style="rounded=0;whiteSpace=wrap;html=1;fontFamily=Times New Roman;fillColor=none;strokeColor=none;align=center;fontSize=45;" vertex="1" parent="1">
          <mxGeometry x="-75" y="1580" width="150" height="60" as="geometry" />
        </mxCell>
        <mxCell id="_yWJ8XgYvZZ2svztFTC0-289" value="" style="endArrow=block;html=1;rounded=0;fontFamily=Times New Roman;fontSize=45;fontColor=#0000CC;strokeWidth=5;endFill=1;strokeColor=#0000CC;" edge="1" parent="1">
          <mxGeometry width="50" height="50" relative="1" as="geometry">
            <mxPoint x="-180" y="260" as="sourcePoint" />
            <mxPoint x="-180" y="320" as="targetPoint" />
          </mxGeometry>
        </mxCell>
        <mxCell id="_yWJ8XgYvZZ2svztFTC0-291" style="rounded=0;orthogonalLoop=1;jettySize=auto;html=1;strokeColor=#0000CC;strokeWidth=5;fontFamily=Times New Roman;fontSize=45;fontColor=#0000CC;startArrow=none;startFill=0;endArrow=block;endFill=1;" edge="1" parent="1">
          <mxGeometry relative="1" as="geometry">
            <mxPoint x="-180" y="360" as="sourcePoint" />
            <mxPoint x="-90" y="410" as="targetPoint" />
          </mxGeometry>
        </mxCell>
        <mxCell id="_yWJ8XgYvZZ2svztFTC0-292" style="rounded=0;orthogonalLoop=1;jettySize=auto;html=1;strokeColor=#0000CC;strokeWidth=5;fontFamily=Times New Roman;fontSize=45;fontColor=#0000CC;startArrow=none;startFill=0;endArrow=block;endFill=1;" edge="1" parent="1">
          <mxGeometry relative="1" as="geometry">
            <mxPoint x="-90" y="450" as="sourcePoint" />
            <mxPoint x="-90" y="500" as="targetPoint" />
          </mxGeometry>
        </mxCell>
        <mxCell id="_yWJ8XgYvZZ2svztFTC0-293" style="edgeStyle=none;rounded=0;orthogonalLoop=1;jettySize=auto;html=1;strokeColor=#0000CC;strokeWidth=5;fontFamily=Times New Roman;fontSize=45;fontColor=#0000CC;startArrow=none;startFill=0;endArrow=block;endFill=1;" edge="1" parent="1">
          <mxGeometry relative="1" as="geometry">
            <mxPoint x="-90" y="540" as="sourcePoint" />
            <mxPoint y="590" as="targetPoint" />
          </mxGeometry>
        </mxCell>
        <mxCell id="_yWJ8XgYvZZ2svztFTC0-294" style="edgeStyle=none;rounded=0;orthogonalLoop=1;jettySize=auto;html=1;strokeColor=#0000CC;strokeWidth=5;fontFamily=Times New Roman;fontSize=45;fontColor=#0000CC;startArrow=none;startFill=0;endArrow=block;endFill=1;" edge="1" parent="1">
          <mxGeometry relative="1" as="geometry">
            <mxPoint y="630" as="sourcePoint" />
            <mxPoint y="680" as="targetPoint" />
          </mxGeometry>
        </mxCell>
        <mxCell id="_yWJ8XgYvZZ2svztFTC0-295" style="edgeStyle=none;rounded=0;orthogonalLoop=1;jettySize=auto;html=1;strokeColor=#0000CC;strokeWidth=5;fontFamily=Times New Roman;fontSize=45;fontColor=#0000CC;startArrow=none;startFill=0;endArrow=block;endFill=1;" edge="1" parent="1">
          <mxGeometry relative="1" as="geometry">
            <mxPoint y="720" as="sourcePoint" />
            <mxPoint x="90" y="770" as="targetPoint" />
          </mxGeometry>
        </mxCell>
        <mxCell id="_yWJ8XgYvZZ2svztFTC0-296" style="edgeStyle=none;rounded=0;orthogonalLoop=1;jettySize=auto;html=1;strokeColor=#0000CC;strokeWidth=5;fontFamily=Times New Roman;fontSize=45;fontColor=#0000CC;startArrow=none;startFill=0;endArrow=block;endFill=1;" edge="1" parent="1">
          <mxGeometry relative="1" as="geometry">
            <mxPoint x="90" y="810" as="sourcePoint" />
            <mxPoint x="90" y="860" as="targetPoint" />
          </mxGeometry>
        </mxCell>
        <mxCell id="_yWJ8XgYvZZ2svztFTC0-297" style="edgeStyle=none;rounded=0;orthogonalLoop=1;jettySize=auto;html=1;strokeColor=#0000CC;strokeWidth=5;fontFamily=Times New Roman;fontSize=45;fontColor=#0000CC;startArrow=none;startFill=0;endArrow=block;endFill=1;" edge="1" parent="1">
          <mxGeometry relative="1" as="geometry">
            <mxPoint x="90" y="900" as="sourcePoint" />
            <mxPoint x="180" y="950" as="targetPoint" />
          </mxGeometry>
        </mxCell>
        <mxCell id="_yWJ8XgYvZZ2svztFTC0-298" style="edgeStyle=none;rounded=0;orthogonalLoop=1;jettySize=auto;html=1;strokeColor=#0000CC;strokeWidth=5;fontFamily=Times New Roman;fontSize=45;fontColor=#0000CC;startArrow=none;startFill=0;endArrow=block;endFill=1;" edge="1" parent="1">
          <mxGeometry relative="1" as="geometry">
            <mxPoint x="180" y="990" as="sourcePoint" />
            <mxPoint x="180" y="1030" as="targetPoint" />
          </mxGeometry>
        </mxCell>
        <mxCell id="_yWJ8XgYvZZ2svztFTC0-301" style="edgeStyle=none;rounded=0;orthogonalLoop=1;jettySize=auto;html=1;strokeColor=#0000CC;strokeWidth=5;fontFamily=Times New Roman;fontSize=45;fontColor=#0000CC;startArrow=none;startFill=0;endArrow=block;endFill=1;" edge="1" parent="1">
          <mxGeometry relative="1" as="geometry">
            <mxPoint x="179.67" y="1165" as="sourcePoint" />
            <mxPoint x="179.67" y="1205" as="targetPoint" />
          </mxGeometry>
        </mxCell>
        <mxCell id="_yWJ8XgYvZZ2svztFTC0-302" style="edgeStyle=none;rounded=0;orthogonalLoop=1;jettySize=auto;html=1;strokeColor=#0000CC;strokeWidth=5;fontFamily=Times New Roman;fontSize=45;fontColor=#0000CC;startArrow=none;startFill=0;endArrow=block;endFill=1;" edge="1" parent="1">
          <mxGeometry relative="1" as="geometry">
            <mxPoint x="179.67" y="1255" as="sourcePoint" />
            <mxPoint x="179.67" y="1295" as="targetPoint" />
          </mxGeometry>
        </mxCell>
        <mxCell id="_yWJ8XgYvZZ2svztFTC0-299" style="edgeStyle=none;rounded=0;orthogonalLoop=1;jettySize=auto;html=1;strokeColor=#0000CC;strokeWidth=5;fontFamily=Times New Roman;fontSize=45;fontColor=#0000CC;startArrow=none;startFill=0;endArrow=block;endFill=1;" edge="1" parent="1">
          <mxGeometry relative="1" as="geometry">
            <mxPoint x="180" y="1070" as="sourcePoint" />
            <mxPoint x="180" y="1120" as="targetPoint" />
          </mxGeometry>
        </mxCell>
        <mxCell id="_yWJ8XgYvZZ2svztFTC0-303" style="edgeStyle=none;rounded=0;orthogonalLoop=1;jettySize=auto;html=1;strokeColor=#0000CC;strokeWidth=5;fontFamily=Times New Roman;fontSize=45;fontColor=#0000CC;startArrow=none;startFill=0;endArrow=block;endFill=1;" edge="1" parent="1">
          <mxGeometry relative="1" as="geometry">
            <mxPoint x="179.67000000000002" y="1345" as="sourcePoint" />
            <mxPoint x="179.67000000000002" y="1385" as="targetPoint" />
          </mxGeometry>
        </mxCell>
        <mxCell id="_yWJ8XgYvZZ2svztFTC0-304" style="edgeStyle=none;rounded=0;orthogonalLoop=1;jettySize=auto;html=1;strokeColor=#0000CC;strokeWidth=5;fontFamily=Times New Roman;fontSize=45;fontColor=#0000CC;startArrow=none;startFill=0;endArrow=block;endFill=1;" edge="1" parent="1">
          <mxGeometry relative="1" as="geometry">
            <mxPoint x="179.67000000000002" y="1435" as="sourcePoint" />
            <mxPoint x="179.67000000000002" y="1475" as="targetPoint" />
          </mxGeometry>
        </mxCell>
        <mxCell id="_yWJ8XgYvZZ2svztFTC0-305" value="" style="edgeStyle=none;rounded=0;orthogonalLoop=1;jettySize=auto;html=1;strokeColor=#007FFF;strokeWidth=5;fontFamily=Times New Roman;fontSize=45;fontColor=#0000CC;startArrow=none;startFill=0;endArrow=block;endFill=1;" edge="1" parent="1">
          <mxGeometry relative="1" as="geometry">
            <mxPoint x="-270" y="260" as="sourcePoint" />
            <mxPoint x="-270" y="320" as="targetPoint" />
          </mxGeometry>
        </mxCell>
        <mxCell id="_yWJ8XgYvZZ2svztFTC0-306" value="" style="edgeStyle=none;rounded=0;orthogonalLoop=1;jettySize=auto;html=1;strokeColor=#007FFF;strokeWidth=5;fontFamily=Times New Roman;fontSize=45;fontColor=#0000CC;startArrow=none;startFill=0;endArrow=block;endFill=1;" edge="1" parent="1">
          <mxGeometry relative="1" as="geometry">
            <mxPoint x="-270.42" y="360" as="sourcePoint" />
            <mxPoint x="-270.42" y="410" as="targetPoint" />
          </mxGeometry>
        </mxCell>
        <mxCell id="_yWJ8XgYvZZ2svztFTC0-307" value="" style="edgeStyle=none;rounded=0;orthogonalLoop=1;jettySize=auto;html=1;strokeColor=#007FFF;strokeWidth=5;fontFamily=Times New Roman;fontSize=45;fontColor=#0000CC;startArrow=none;startFill=0;endArrow=block;endFill=1;" edge="1" parent="1">
          <mxGeometry relative="1" as="geometry">
            <mxPoint x="-270.42" y="540" as="sourcePoint" />
            <mxPoint x="-180" y="590" as="targetPoint" />
          </mxGeometry>
        </mxCell>
        <mxCell id="_yWJ8XgYvZZ2svztFTC0-308" value="" style="edgeStyle=none;rounded=0;orthogonalLoop=1;jettySize=auto;html=1;strokeColor=#007FFF;strokeWidth=5;fontFamily=Times New Roman;fontSize=45;fontColor=#0000CC;startArrow=none;startFill=0;endArrow=block;endFill=1;" edge="1" parent="1">
          <mxGeometry relative="1" as="geometry">
            <mxPoint x="-270.4200000000001" y="450" as="sourcePoint" />
            <mxPoint x="-270.4200000000001" y="500" as="targetPoint" />
          </mxGeometry>
        </mxCell>
        <mxCell id="_yWJ8XgYvZZ2svztFTC0-309" value="" style="edgeStyle=none;rounded=0;orthogonalLoop=1;jettySize=auto;html=1;strokeColor=#007FFF;strokeWidth=5;fontFamily=Times New Roman;fontSize=45;fontColor=#0000CC;startArrow=none;startFill=0;endArrow=block;endFill=1;" edge="1" parent="1">
          <mxGeometry relative="1" as="geometry">
            <mxPoint x="-180.50000000000006" y="630" as="sourcePoint" />
            <mxPoint x="-180.50000000000006" y="680" as="targetPoint" />
          </mxGeometry>
        </mxCell>
        <mxCell id="_yWJ8XgYvZZ2svztFTC0-310" value="" style="edgeStyle=none;rounded=0;orthogonalLoop=1;jettySize=auto;html=1;strokeColor=#007FFF;strokeWidth=5;fontFamily=Times New Roman;fontSize=45;fontColor=#0000CC;startArrow=none;startFill=0;endArrow=block;endFill=1;" edge="1" parent="1">
          <mxGeometry relative="1" as="geometry">
            <mxPoint x="-180.5" y="720" as="sourcePoint" />
            <mxPoint x="-180.5" y="770" as="targetPoint" />
          </mxGeometry>
        </mxCell>
        <mxCell id="_yWJ8XgYvZZ2svztFTC0-311" value="" style="edgeStyle=none;rounded=0;orthogonalLoop=1;jettySize=auto;html=1;strokeColor=#007FFF;strokeWidth=5;fontFamily=Times New Roman;fontSize=45;fontColor=#0000CC;startArrow=none;startFill=0;endArrow=block;endFill=1;" edge="1" parent="1">
          <mxGeometry relative="1" as="geometry">
            <mxPoint x="-180.5" y="810" as="sourcePoint" />
            <mxPoint x="-180.5" y="860" as="targetPoint" />
          </mxGeometry>
        </mxCell>
        <mxCell id="_yWJ8XgYvZZ2svztFTC0-312" value="" style="edgeStyle=none;rounded=0;orthogonalLoop=1;jettySize=auto;html=1;strokeColor=#007FFF;strokeWidth=5;fontFamily=Times New Roman;fontSize=45;fontColor=#0000CC;startArrow=none;startFill=0;endArrow=block;endFill=1;" edge="1" parent="1">
          <mxGeometry relative="1" as="geometry">
            <mxPoint x="-180" y="900" as="sourcePoint" />
            <mxPoint x="-180" y="950" as="targetPoint" />
          </mxGeometry>
        </mxCell>
        <mxCell id="_yWJ8XgYvZZ2svztFTC0-313" value="" style="edgeStyle=none;rounded=0;orthogonalLoop=1;jettySize=auto;html=1;strokeColor=#007FFF;strokeWidth=5;fontFamily=Times New Roman;fontSize=45;fontColor=#0000CC;startArrow=none;startFill=0;endArrow=block;endFill=1;" edge="1" parent="1">
          <mxGeometry relative="1" as="geometry">
            <mxPoint x="-180.5" y="810" as="sourcePoint" />
            <mxPoint x="-180.5" y="860" as="targetPoint" />
          </mxGeometry>
        </mxCell>
        <mxCell id="_yWJ8XgYvZZ2svztFTC0-314" value="" style="edgeStyle=none;rounded=0;orthogonalLoop=1;jettySize=auto;html=1;strokeColor=#007FFF;strokeWidth=5;fontFamily=Times New Roman;fontSize=45;fontColor=#0000CC;startArrow=none;startFill=0;endArrow=block;endFill=1;" edge="1" parent="1">
          <mxGeometry relative="1" as="geometry">
            <mxPoint x="-180.5" y="990" as="sourcePoint" />
            <mxPoint x="-180" y="1030" as="targetPoint" />
          </mxGeometry>
        </mxCell>
        <mxCell id="_yWJ8XgYvZZ2svztFTC0-315" value="" style="edgeStyle=none;rounded=0;orthogonalLoop=1;jettySize=auto;html=1;strokeColor=#007FFF;strokeWidth=5;fontFamily=Times New Roman;fontSize=45;fontColor=#0000CC;startArrow=none;startFill=0;endArrow=block;endFill=1;" edge="1" parent="1">
          <mxGeometry relative="1" as="geometry">
            <mxPoint x="-180.2100000000001" y="1070" as="sourcePoint" />
            <mxPoint x="-89.79" y="1120" as="targetPoint" />
          </mxGeometry>
        </mxCell>
        <mxCell id="_yWJ8XgYvZZ2svztFTC0-316" value="" style="edgeStyle=none;rounded=0;orthogonalLoop=1;jettySize=auto;html=1;strokeColor=#007FFF;strokeWidth=5;fontFamily=Times New Roman;fontSize=45;fontColor=#0000CC;startArrow=none;startFill=0;endArrow=block;endFill=1;" edge="1" parent="1">
          <mxGeometry relative="1" as="geometry">
            <mxPoint x="-90.75" y="1160" as="sourcePoint" />
            <mxPoint x="-90.75" y="1210" as="targetPoint" />
          </mxGeometry>
        </mxCell>
        <mxCell id="_yWJ8XgYvZZ2svztFTC0-317" value="" style="edgeStyle=none;rounded=0;orthogonalLoop=1;jettySize=auto;html=1;strokeColor=#007FFF;strokeWidth=5;fontFamily=Times New Roman;fontSize=45;fontColor=#0000CC;startArrow=none;startFill=0;endArrow=block;endFill=1;" edge="1" parent="1">
          <mxGeometry relative="1" as="geometry">
            <mxPoint x="-90.75" y="1250" as="sourcePoint" />
            <mxPoint x="-90.75" y="1300" as="targetPoint" />
          </mxGeometry>
        </mxCell>
        <mxCell id="_yWJ8XgYvZZ2svztFTC0-318" value="" style="edgeStyle=none;rounded=0;orthogonalLoop=1;jettySize=auto;html=1;strokeColor=#007FFF;strokeWidth=5;fontFamily=Times New Roman;fontSize=45;fontColor=#0000CC;startArrow=none;startFill=0;endArrow=block;endFill=1;" edge="1" parent="1">
          <mxGeometry relative="1" as="geometry">
            <mxPoint x="-90.25" y="1430" as="sourcePoint" />
            <mxPoint x="-90.25" y="1480" as="targetPoint" />
          </mxGeometry>
        </mxCell>
        <mxCell id="_yWJ8XgYvZZ2svztFTC0-319" value="" style="edgeStyle=none;rounded=0;orthogonalLoop=1;jettySize=auto;html=1;strokeColor=#007FFF;strokeWidth=5;fontFamily=Times New Roman;fontSize=45;fontColor=#0000CC;startArrow=none;startFill=0;endArrow=block;endFill=1;" edge="1" parent="1">
          <mxGeometry relative="1" as="geometry">
            <mxPoint x="-90.75" y="1340" as="sourcePoint" />
            <mxPoint x="-90.75" y="1390" as="targetPoint" />
          </mxGeometry>
        </mxCell>
        <mxCell id="_yWJ8XgYvZZ2svztFTC0-23" value="&lt;font style=&quot;font-size: 45px;&quot;&gt;1&lt;/font&gt;" style="rounded=0;whiteSpace=wrap;html=1;fontFamily=Times New Roman;fontSize=45;" vertex="1" parent="1">
          <mxGeometry x="150" y="310" width="60" height="60" as="geometry" />
        </mxCell>
        <mxCell id="_yWJ8XgYvZZ2svztFTC0-322" value="" style="edgeStyle=none;rounded=0;orthogonalLoop=1;jettySize=auto;html=1;strokeColor=#666600;strokeWidth=5;fontFamily=Times New Roman;fontSize=45;fontColor=#0000CC;startArrow=none;startFill=0;endArrow=block;endFill=1;" edge="1" parent="1">
          <mxGeometry relative="1" as="geometry">
            <mxPoint x="179.5" y="370" as="sourcePoint" />
            <mxPoint x="179.5" y="410" as="targetPoint" />
          </mxGeometry>
        </mxCell>
        <mxCell id="_yWJ8XgYvZZ2svztFTC0-324" value="" style="edgeStyle=none;rounded=0;orthogonalLoop=1;jettySize=auto;html=1;strokeColor=#666600;strokeWidth=5;fontFamily=Times New Roman;fontSize=45;fontColor=#0000CC;startArrow=none;startFill=0;endArrow=block;endFill=1;" edge="1" parent="1">
          <mxGeometry relative="1" as="geometry">
            <mxPoint x="180" y="270" as="sourcePoint" />
            <mxPoint x="180" y="310" as="targetPoint" />
          </mxGeometry>
        </mxCell>
        <mxCell id="_yWJ8XgYvZZ2svztFTC0-325" value="" style="edgeStyle=none;rounded=0;orthogonalLoop=1;jettySize=auto;html=1;strokeColor=#666600;strokeWidth=5;fontFamily=Times New Roman;fontSize=45;fontColor=#0000CC;startArrow=none;startFill=0;endArrow=block;endFill=1;" edge="1" parent="1">
          <mxGeometry relative="1" as="geometry">
            <mxPoint x="179.71" y="460" as="sourcePoint" />
            <mxPoint x="179.71" y="500" as="targetPoint" />
          </mxGeometry>
        </mxCell>
        <mxCell id="_yWJ8XgYvZZ2svztFTC0-326" value="" style="edgeStyle=none;rounded=0;orthogonalLoop=1;jettySize=auto;html=1;strokeColor=#666600;strokeWidth=5;fontFamily=Times New Roman;fontSize=45;fontColor=#0000CC;startArrow=none;startFill=0;endArrow=block;endFill=1;" edge="1" parent="1">
          <mxGeometry relative="1" as="geometry">
            <mxPoint x="180" y="540" as="sourcePoint" />
            <mxPoint x="90" y="590" as="targetPoint" />
          </mxGeometry>
        </mxCell>
        <mxCell id="_yWJ8XgYvZZ2svztFTC0-327" value="" style="edgeStyle=none;rounded=0;orthogonalLoop=1;jettySize=auto;html=1;strokeColor=#666600;strokeWidth=5;fontFamily=Times New Roman;fontSize=45;fontColor=#0000CC;startArrow=none;startFill=0;endArrow=block;endFill=1;" edge="1" parent="1">
          <mxGeometry relative="1" as="geometry">
            <mxPoint x="89.66000000000004" y="640.0000000000001" as="sourcePoint" />
            <mxPoint x="89.66000000000004" y="680.0000000000001" as="targetPoint" />
          </mxGeometry>
        </mxCell>
        <mxCell id="_yWJ8XgYvZZ2svztFTC0-328" value="" style="edgeStyle=none;rounded=0;orthogonalLoop=1;jettySize=auto;html=1;strokeColor=#666600;strokeWidth=5;fontFamily=Times New Roman;fontSize=45;fontColor=#0000CC;startArrow=none;startFill=0;endArrow=block;endFill=1;" edge="1" parent="1">
          <mxGeometry relative="1" as="geometry">
            <mxPoint x="90" y="720" as="sourcePoint" />
            <mxPoint y="770" as="targetPoint" />
          </mxGeometry>
        </mxCell>
        <mxCell id="_yWJ8XgYvZZ2svztFTC0-329" value="" style="edgeStyle=none;rounded=0;orthogonalLoop=1;jettySize=auto;html=1;strokeColor=#666600;strokeWidth=5;fontFamily=Times New Roman;fontSize=45;fontColor=#0000CC;startArrow=none;startFill=0;endArrow=block;endFill=1;" edge="1" parent="1">
          <mxGeometry relative="1" as="geometry">
            <mxPoint x="8.526512829121202e-14" y="820" as="sourcePoint" />
            <mxPoint x="8.526512829121202e-14" y="860" as="targetPoint" />
          </mxGeometry>
        </mxCell>
        <mxCell id="_yWJ8XgYvZZ2svztFTC0-330" value="" style="edgeStyle=none;rounded=0;orthogonalLoop=1;jettySize=auto;html=1;strokeColor=#666600;strokeWidth=5;fontFamily=Times New Roman;fontSize=45;fontColor=#0000CC;startArrow=none;startFill=0;endArrow=block;endFill=1;" edge="1" parent="1">
          <mxGeometry relative="1" as="geometry">
            <mxPoint y="900" as="sourcePoint" />
            <mxPoint x="-90" y="950" as="targetPoint" />
          </mxGeometry>
        </mxCell>
        <mxCell id="_yWJ8XgYvZZ2svztFTC0-331" value="" style="edgeStyle=none;rounded=0;orthogonalLoop=1;jettySize=auto;html=1;strokeColor=#666600;strokeWidth=5;fontFamily=Times New Roman;fontSize=45;fontColor=#0000CC;startArrow=none;startFill=0;endArrow=block;endFill=1;" edge="1" parent="1">
          <mxGeometry relative="1" as="geometry">
            <mxPoint x="-90.34" y="990" as="sourcePoint" />
            <mxPoint x="-90.34" y="1030" as="targetPoint" />
          </mxGeometry>
        </mxCell>
        <mxCell id="_yWJ8XgYvZZ2svztFTC0-332" value="" style="edgeStyle=none;rounded=0;orthogonalLoop=1;jettySize=auto;html=1;strokeColor=#666600;strokeWidth=5;fontFamily=Times New Roman;fontSize=45;fontColor=#0000CC;startArrow=none;startFill=0;endArrow=block;endFill=1;" edge="1" parent="1">
          <mxGeometry relative="1" as="geometry">
            <mxPoint x="-90" y="1070" as="sourcePoint" />
            <mxPoint x="-180" y="1120" as="targetPoint" />
          </mxGeometry>
        </mxCell>
        <mxCell id="_yWJ8XgYvZZ2svztFTC0-333" value="" style="edgeStyle=none;rounded=0;orthogonalLoop=1;jettySize=auto;html=1;strokeColor=#666600;strokeWidth=5;fontFamily=Times New Roman;fontSize=45;fontColor=#0000CC;startArrow=none;startFill=0;endArrow=block;endFill=1;" edge="1" parent="1">
          <mxGeometry relative="1" as="geometry">
            <mxPoint x="-180.34000000000015" y="1169" as="sourcePoint" />
            <mxPoint x="-180.34000000000015" y="1209" as="targetPoint" />
          </mxGeometry>
        </mxCell>
        <mxCell id="_yWJ8XgYvZZ2svztFTC0-334" value="" style="edgeStyle=none;rounded=0;orthogonalLoop=1;jettySize=auto;html=1;strokeColor=#666600;strokeWidth=5;fontFamily=Times New Roman;fontSize=45;fontColor=#0000CC;startArrow=none;startFill=0;endArrow=block;endFill=1;" edge="1" parent="1">
          <mxGeometry relative="1" as="geometry">
            <mxPoint x="-180" y="1250" as="sourcePoint" />
            <mxPoint x="-270" y="1300" as="targetPoint" />
          </mxGeometry>
        </mxCell>
        <mxCell id="_yWJ8XgYvZZ2svztFTC0-335" value="" style="edgeStyle=none;rounded=0;orthogonalLoop=1;jettySize=auto;html=1;strokeColor=#666600;strokeWidth=5;fontFamily=Times New Roman;fontSize=45;fontColor=#0000CC;startArrow=none;startFill=0;endArrow=block;endFill=1;" edge="1" parent="1">
          <mxGeometry relative="1" as="geometry">
            <mxPoint x="-270.34000000000015" y="1350" as="sourcePoint" />
            <mxPoint x="-270.34000000000015" y="1390" as="targetPoint" />
          </mxGeometry>
        </mxCell>
        <mxCell id="_yWJ8XgYvZZ2svztFTC0-336" value="" style="edgeStyle=none;rounded=0;orthogonalLoop=1;jettySize=auto;html=1;strokeColor=#666600;strokeWidth=5;fontFamily=Times New Roman;fontSize=45;fontColor=#0000CC;startArrow=none;startFill=0;endArrow=block;endFill=1;" edge="1" parent="1">
          <mxGeometry relative="1" as="geometry">
            <mxPoint x="-270.34000000000015" y="1440" as="sourcePoint" />
            <mxPoint x="-270.34000000000015" y="1480" as="targetPoint" />
          </mxGeometry>
        </mxCell>
      </root>
    </mxGraphModel>
  </diagram>
</mxfile>
